<svg width="28" height="23" viewBox="0 0 28 23" fill="none" xmlns="http://www.w3.org/2000/svg">
<path d="M8.7955 23C19.362 23 25.1422 14.149 25.1422 6.48688C25.1422 6.2392 25.1423 5.98798 25.1318 5.7403C26.2571 4.91675 27.2284 3.89713 28 2.72923C26.9488 3.19779 25.8348 3.5066 24.6943 3.64565C25.8957 2.91966 26.7955 1.77738 27.2265 0.431126C26.0977 1.10716 24.8623 1.58173 23.5742 1.83405C22.7083 0.901758 21.5625 0.284142 20.3141 0.0768701C19.0658 -0.130402 17.7848 0.0842367 16.6693 0.68754C15.5539 1.29084 14.6664 2.24914 14.1443 3.414C13.6222 4.57885 13.4946 5.88525 13.7812 7.13085C11.497 7.01506 9.26243 6.41517 7.22232 5.3701C5.18222 4.32503 3.3822 2.8581 1.939 1.06448C1.20635 2.34371 0.982754 3.85688 1.31363 5.29672C1.64451 6.73656 2.50505 7.99512 3.7205 8.81683C2.80969 8.78555 1.91891 8.5383 1.12 8.09503V8.17464C1.12157 9.51472 1.58079 10.8132 2.42003 11.8505C3.25927 12.8878 4.42706 13.6004 5.726 13.8677C5.23296 14.005 4.72365 14.0735 4.21225 14.0712C3.85172 14.0723 3.49192 14.0385 3.13775 13.9703C3.50488 15.1239 4.21973 16.1325 5.18218 16.8549C6.14464 17.5772 7.30648 17.9772 8.505 17.9986C6.46897 19.6153 3.95395 20.4921 1.365 20.4878C0.908811 20.4898 0.45294 20.4632 0 20.4082C2.62765 22.1017 5.67927 23.001 8.7955 23Z" fill="#684575"/>
</svg>
